<svg xmlns="http://www.w3.org/2000/svg"  viewBox="0 0 64 64" width="64px" height="64px">
<path d="M 13 10 C 9.262 15.846 8.4448125 20.401234 8.3828125 23.115234 C 11.999813 20.000234 17.99975 17.999891 23.71875 17.962891 C 22.06575 15.742891 18.894 12.642 13 10 z M 51 10 C 45.054 12.666 41.877328 15.799437 40.236328 18.023438 C 46.000328 18.000438 52.999188 21.000438 55.617188 23.773438 C 55.675187 21.176437 55.06 16.349 51 10 z M 32 18.5 C 28.5465 18.5 25.092547 19 21.185547 20 C 13.195547 22.045 6.3837969 26.927109 6.8417969 35.162109 L 7.0039062 38.0625 C 7.0836981 39.496474 7.3352648 40.856601 7.7128906 42.150391 C 5.8177153 42.35656 3.0543923 42.854641 0.55273438 44.105469 A 1.0001161 1.0001161 0 0 0 1.4472656 45.894531 C 3.8843567 44.675986 6.702717 44.270388 8.4238281 44.115234 C 8.9576808 45.360171 9.6203375 46.523505 10.412109 47.585938 C 7.7781891 48.280785 4.1850522 49.816191 1.2324219 53.359375 A 1.0001 1.0001 0 1 0 2.7675781 54.640625 C 5.781497 51.023922 9.5232447 49.735167 11.837891 49.269531 C 15.3231 52.875744 20.369911 55 25.964844 55 L 38.033203 55 C 43.628136 55 48.676797 52.875744 52.162109 49.269531 C 54.476755 49.735177 58.218503 51.023954 61.232422 54.640625 A 1.0001 1.0001 0 1 0 62.767578 53.359375 C 59.814948 49.816219 56.221811 48.280793 53.587891 47.585938 C 54.379671 46.523505 55.042359 45.360171 55.576172 44.115234 C 57.297283 44.270388 60.115644 44.675984 62.552734 45.894531 A 1.0001163 1.0001163 0 1 0 63.447266 44.105469 C 60.944783 42.854228 58.180366 42.356428 56.285156 42.150391 C 56.662739 40.856554 56.916441 39.496533 56.996094 38.0625 L 57.15625 35.162109 C 57.61425 26.927109 50.803453 22.045 42.814453 20 C 38.907453 19 35.4535 18.5 32 18.5 z M 22.798828 30.228516 C 23.103248 30.223058 23.409984 30.229297 23.716797 30.248047 C 29.217797 30.584047 34.786109 30.584047 40.287109 30.248047 C 45.196109 29.948047 49.886656 32.787359 51.472656 37.443359 C 51.487656 37.487359 51.503578 37.532172 51.517578 37.576172 C 52.562578 40.785172 51.488422 44.260297 49.107422 46.654297 C 46.410422 49.366297 42.513156 51 38.035156 51 L 25.964844 51 C 21.486844 51 17.589578 49.366297 14.892578 46.654297 C 12.511578 44.260297 11.436375 40.784219 12.484375 37.574219 C 12.498375 37.531219 12.513344 37.486359 12.527344 37.443359 C 14.015156 33.078359 18.232537 30.310386 22.798828 30.228516 z M 23.5 34 A 2.5 4.5 0 0 0 23.5 43 A 2.5 4.5 0 0 0 23.5 34 z M 40.5 34 A 2.5 4.5 0 0 0 40.5 43 A 2.5 4.5 0 0 0 40.5 34 z M 32 41 A 2 2 0 0 0 32 45 A 2 2 0 0 0 32 41 z M 36.037109 44.988281 A 1.0001 1.0001 0 0 0 35.201172 45.398438 C 34.471032 46.370356 33.314511 47 32 47 C 30.684293 47 29.529179 46.370636 28.798828 45.398438 A 1.0001 1.0001 0 1 0 27.201172 46.601562 C 28.294821 48.057364 30.043707 49 32 49 C 33.955489 49 35.704968 48.057645 36.798828 46.601562 A 1.0001 1.0001 0 0 0 36.037109 44.988281 z"/>
</svg>
