<svg xmlns="http://www.w3.org/2000/svg" xmlns:xlink="http://www.w3.org/1999/xlink" viewBox="0,0,256,256" width="64px" height="64px"><g transform="translate(7.68,7.68) scale(0.94,0.94)"><g fill="none" fill-rule="nonzero" stroke="none" stroke-width="none" stroke-linecap="butt" stroke-linejoin="none" stroke-miterlimit="10" stroke-dasharray="" stroke-dashoffset="0" font-family="none" font-weight="none" font-size="none" text-anchor="none" style="mix-blend-mode: normal"><path transform="scale(4,4)" d="M23.71875,17.96289c-5.719,0.037 -11.71894,2.03734 -15.33594,5.15234c0.062,-2.714 0.87919,-7.26923 4.61719,-13.11523c5.894,2.642 9.06575,5.74289 10.71875,7.96289zM55.61719,23.77344c-2.618,-2.773 -9.61686,-5.773 -15.38086,-5.75c1.641,-2.224 4.81767,-5.35744 10.76367,-8.02344c4.06,6.349 4.67519,11.17644 4.61719,13.77344zM42.81445,20c7.989,2.045 14.7998,6.92711 14.3418,15.16211l-0.16016,2.90039c-0.07965,1.43403 -0.33335,2.79405 -0.71094,4.08789c1.89521,0.20604 4.65963,0.70384 7.16211,1.95508c0.31965,0.15976 0.52977,0.47792 0.5512,0.83463c0.02143,0.3567 -0.14909,0.69774 -0.44731,0.89462c-0.29822,0.19688 -0.67883,0.21968 -0.99842,0.05981c-2.43709,-1.21855 -5.25545,-1.62414 -6.97656,-1.7793c-0.53381,1.24494 -1.1965,2.40827 -1.98828,3.4707c2.63392,0.69486 6.22706,2.23028 9.17969,5.77344c0.23965,0.27299 0.31244,0.65446 0.19014,0.99651c-0.1223,0.34205 -0.42045,0.59089 -0.77886,0.65004c-0.35841,0.05915 -0.72071,-0.08069 -0.94643,-0.3653c-3.01392,-3.61667 -6.75567,-4.90545 -9.07031,-5.37109c-3.48531,3.60621 -8.53397,5.73047 -14.12891,5.73047h-12.06836c-5.59493,0 -10.64174,-2.12426 -14.12695,-5.73047c-2.31465,0.46564 -6.05639,1.75439 -9.07031,5.37109c-0.22572,0.28461 -0.58802,0.42445 -0.94643,0.3653c-0.35841,-0.05915 -0.65656,-0.30799 -0.77886,-0.65004c-0.1223,-0.34205 -0.04951,-0.72352 0.19014,-0.99651c2.95263,-3.54318 6.54577,-5.07859 9.17969,-5.77344c-0.79177,-1.06243 -1.45443,-2.22577 -1.98828,-3.4707c-1.72111,0.15515 -4.53947,0.56075 -6.97656,1.7793c-0.49404,0.24702 -1.09478,0.04677 -1.3418,-0.44727c-0.24702,-0.49404 -0.04677,-1.09478 0.44727,-1.3418c2.50166,-1.25083 5.26498,-1.74891 7.16016,-1.95508c-0.37763,-1.29379 -0.62919,-2.65392 -0.70898,-4.08789l-0.16211,-2.90039c-0.458,-8.235 6.35375,-13.11711 14.34375,-15.16211c3.907,-1 7.36095,-1.5 10.81445,-1.5c3.4535,0 6.90745,0.5 10.81445,1.5z" id="strokeMainSVG" fill="#5ae9d8" stroke="#5ae9d8" stroke-width="4" stroke-linejoin="round"></path><g transform="scale(4,4)" fill="#bc72ee" stroke="none" stroke-width="1" stroke-linejoin="miter"><path d="M13,10c-3.738,5.846 -4.55519,10.40123 -4.61719,13.11523c3.617,-3.115 9.61694,-5.11534 15.33594,-5.15234c-1.653,-2.22 -4.82475,-5.32089 -10.71875,-7.96289zM51,10c-5.946,2.666 -9.12267,5.79944 -10.76367,8.02344c5.764,-0.023 12.76286,2.977 15.38086,5.75c0.058,-2.597 -0.55719,-7.42444 -4.61719,-13.77344zM32,18.5c-3.4535,0 -6.90745,0.5 -10.81445,1.5c-7.99,2.045 -14.80175,6.92711 -14.34375,15.16211l0.16211,2.90039c0.07979,1.43397 0.33136,2.7941 0.70898,4.08789c-1.89518,0.20617 -4.6585,0.70425 -7.16016,1.95508c-0.49404,0.24702 -0.69428,0.84776 -0.44727,1.3418c0.24702,0.49404 0.84776,0.69428 1.3418,0.44727c2.43709,-1.21854 5.25545,-1.62414 6.97656,-1.7793c0.53385,1.24494 1.19651,2.40827 1.98828,3.4707c-2.63392,0.69485 -6.22706,2.23025 -9.17969,5.77344c-0.23965,0.27299 -0.31244,0.65446 -0.19014,0.99651c0.1223,0.34205 0.42045,0.59089 0.77886,0.65004c0.35841,0.05915 0.72071,-0.08069 0.94643,-0.3653c3.01392,-3.6167 6.75567,-4.90546 9.07031,-5.37109c3.48521,3.60621 8.53202,5.73047 14.12695,5.73047h12.06836c5.59493,0 10.64359,-2.12426 14.12891,-5.73047c2.31465,0.46565 6.05639,1.75442 9.07031,5.37109c0.22572,0.28461 0.58803,0.42445 0.94643,0.3653c0.35841,-0.05915 0.65656,-0.30799 0.77886,-0.65004c0.1223,-0.34205 0.04951,-0.72352 -0.19014,-0.99651c-2.95263,-3.54316 -6.54577,-5.07858 -9.17969,-5.77344c0.79178,-1.06243 1.45447,-2.22577 1.98828,-3.4707c1.72111,0.15515 4.53947,0.56075 6.97656,1.7793c0.31959,0.15987 0.7002,0.13706 0.99842,-0.05981c0.29822,-0.19688 0.46874,-0.53791 0.44731,-0.89462c-0.02143,-0.3567 -0.23155,-0.67487 -0.5512,-0.83463c-2.50248,-1.25124 -5.2669,-1.74904 -7.16211,-1.95508c0.37758,-1.29384 0.63128,-2.65386 0.71094,-4.08789l0.16016,-2.90039c0.458,-8.235 -6.3528,-13.11711 -14.3418,-15.16211c-3.907,-1 -7.36095,-1.5 -10.81445,-1.5zM22.79883,30.22852c0.30442,-0.00546 0.61116,0.00078 0.91797,0.01953c5.501,0.336 11.06931,0.336 16.57031,0c4.909,-0.3 9.59955,2.53931 11.18555,7.19531c0.015,0.044 0.03092,0.08881 0.04492,0.13281c1.045,3.209 -0.02916,6.68413 -2.41016,9.07813c-2.697,2.712 -6.59427,4.3457 -11.07227,4.3457h-12.07031c-4.478,0 -8.37527,-1.6337 -11.07227,-4.3457c-2.381,-2.394 -3.4562,-5.87008 -2.4082,-9.08008c0.014,-0.043 0.02897,-0.08786 0.04297,-0.13086c1.48781,-4.365 5.70519,-7.13297 10.27148,-7.21484zM23.5,34c-1.38071,0 -2.5,2.01472 -2.5,4.5c0,2.48528 1.11929,4.5 2.5,4.5c1.38071,0 2.5,-2.01472 2.5,-4.5c0,-2.48528 -1.11929,-4.5 -2.5,-4.5zM40.5,34c-1.38071,0 -2.5,2.01472 -2.5,4.5c0,2.48528 1.11929,4.5 2.5,4.5c1.38071,0 2.5,-2.01472 2.5,-4.5c0,-2.48528 -1.11929,-4.5 -2.5,-4.5zM32,41c-1.10457,0 -2,0.89543 -2,2c0,1.10457 0.89543,2 2,2c1.10457,0 2,-0.89543 2,-2c0,-1.10457 -0.89543,-2 -2,-2zM36.03711,44.98828c-0.32918,-0.00925 -0.64181,0.14415 -0.83594,0.41016c-0.73014,0.97192 -1.88666,1.60156 -3.20117,1.60156c-1.31571,0 -2.47082,-0.62936 -3.20117,-1.60156c-0.21289,-0.29111 -0.56602,-0.44505 -0.92419,-0.40289c-0.35817,0.04216 -0.6659,0.2739 -0.80537,0.60649c-0.13947,0.33259 -0.08907,0.71451 0.13191,0.99953c1.09365,1.4558 2.84254,2.39844 4.79883,2.39844c1.95549,0 3.70497,-0.94235 4.79883,-2.39844c0.23118,-0.29757 0.27549,-0.69982 0.1146,-1.04057c-0.16089,-0.34075 -0.49964,-0.56214 -0.87632,-0.57271z"></path></g></g></g></svg>